<svg width="40" height="35" viewBox="0 0 40 35" fill="none" xmlns="http://www.w3.org/2000/svg">
<path d="M14.2857 6.17245H25.7143V3.35898H14.2857V6.17245ZM40 20.2398V30.7904C40 31.7575 39.6503 32.5854 38.9509 33.2741C38.2515 33.9629 37.4107 34.3072 36.4286 34.3072H3.57143C2.58929 34.3072 1.74851 33.9629 1.04911 33.2741C0.349702 32.5854 0 31.7575 0 30.7904V20.2398H15V23.7567C15 24.1377 15.1414 24.4674 15.4241 24.7458C15.7068 25.0242 16.0417 25.1634 16.4286 25.1634H23.5714C23.9583 25.1634 24.2932 25.0242 24.5759 24.7458C24.8586 24.4674 25 24.1377 25 23.7567V20.2398H40ZM22.8571 20.2398V23.0533H17.1429V20.2398H22.8571ZM40 9.6893V18.1297H0V9.6893C0 8.72217 0.349702 7.89424 1.04911 7.20553C1.74851 6.51681 2.58929 6.17245 3.57143 6.17245H11.4286V2.65561C11.4286 2.06947 11.6369 1.57125 12.0536 1.16095C12.4702 0.750651 12.9762 0.545502 13.5714 0.545502H26.4286C27.0238 0.545502 27.5298 0.750651 27.9464 1.16095C28.3631 1.57125 28.5714 2.06947 28.5714 2.65561V6.17245H36.4286C37.4107 6.17245 38.2515 6.51681 38.9509 7.20553C39.6503 7.89424 40 8.72217 40 9.6893Z" fill="#028BBE"/>
</svg>
