<svg width="40" height="40" viewBox="0 0 40 40" fill="none" xmlns="http://www.w3.org/2000/svg">
<g clip-path="url(#clip0_122_2)">
<path d="M12.4381 13.4967L12.7047 13.4767C12.8013 13.4673 12.8936 13.437 12.9733 13.3883L12.9714 13.39C13.2266 14.16 13.539 14.97 13.9295 15.8183C14.4304 16.9283 14.9238 17.84 15.4762 18.72L15.4 18.5867C15.3543 19.1933 15.299 19.8167 15.2266 20.42C15.1949 20.7759 15.1124 21.127 14.9809 21.465L14.9904 21.435C14.9676 21.4433 14.9352 24.9017 14.9352 24.9017C14.9359 25.9747 15.3492 27.0164 16.1087 27.8589C16.8681 28.7015 17.9294 29.296 19.1219 29.5467L19.16 29.5533C19.2129 29.433 19.3062 29.3295 19.4275 29.2563C19.5489 29.1832 19.6926 29.1438 19.84 29.1433H20.9333C21.0793 29.1451 21.2215 29.1844 21.3421 29.2564C21.4627 29.3284 21.5564 29.43 21.6114 29.5483L21.6133 29.5533C22.8158 29.3101 23.8893 28.7188 24.6599 27.8751C25.4305 27.0315 25.853 25.985 25.859 24.905V24.9033C25.859 24.9033 25.7923 21.46 25.7581 21.4367C25.6445 21.1145 25.5667 20.7835 25.5257 20.4483L25.5238 20.4233C25.4571 19.8167 25.4133 19.2083 25.3504 18.59C25.8209 17.8467 26.3143 16.9367 26.7485 15.9983L26.8209 15.8217C27.2114 14.9733 27.5143 14.165 27.779 13.3933C27.8573 13.442 27.9484 13.4724 28.0438 13.4817H28.0457L28.3143 13.5017C28.6381 13.5317 28.9238 13.2983 28.9504 12.9367L29.24 9.71834V9.71501C29.2398 9.5855 29.1858 9.46047 29.088 9.36325C28.9902 9.26603 28.8553 9.20327 28.7085 9.18667H28.6723C28.926 7.51082 28.7689 5.80692 28.2114 4.18834L28.2362 4.27334C27.6989 3.22954 26.8818 2.31455 25.8542 1.60601C24.8266 0.897477 23.6188 0.41631 22.3333 0.203343L22.2838 0.196676C21.6605 0.0873398 21.0278 0.0248896 20.3924 0.0100098H20.3524C19.6877 0.0204249 19.0256 0.0862785 18.3752 0.206676L18.4438 0.196676C17.159 0.405344 15.95 0.880273 14.918 1.58171C13.8861 2.28314 13.0612 3.19068 12.5124 4.22834L12.4914 4.27334C11.943 5.88568 11.7969 7.58229 12.0628 9.24834L12.0552 9.18667C11.908 9.20061 11.7719 9.26152 11.6728 9.35775C11.5737 9.45399 11.5186 9.5788 11.5181 9.70834V9.72001L11.8076 12.9383C11.8343 13.3083 12.1238 13.5317 12.4362 13.5017L12.4381 13.4967Z" fill="#028BBE"/>
<path d="M40.7939 34.5498C40.6606 29.4831 40.0816 28.3364 39.7692 27.5598C39.6454 27.2481 39.5444 25.1414 35.5673 23.7748C33.1292 22.9348 29.9825 22.9181 27.3197 21.9331V24.6731C27.3169 26.0778 26.7559 27.4379 25.7329 28.5204C24.7098 29.6029 23.2883 30.3403 21.712 30.6064L21.6682 30.6131C21.6397 30.7609 21.5527 30.8953 21.4225 30.9928C21.2924 31.0902 21.1272 31.1446 20.9559 31.1464H20.9216V33.2131C20.9216 34.1829 21.3619 35.113 22.1456 35.7987C22.9293 36.4845 23.9923 36.8698 25.1006 36.8698C26.209 36.8698 27.2719 36.4845 28.0556 35.7987C28.8394 35.113 29.2797 34.1829 29.2797 33.2131V31.7698C28.7044 31.6959 28.18 31.4402 27.8057 31.051C27.4313 30.6617 27.233 30.1659 27.2482 29.6573C27.2634 29.1488 27.4911 28.6627 27.8882 28.2911C28.2853 27.9196 28.8243 27.6882 29.4032 27.6408C29.9821 27.5934 30.5607 27.7333 31.0297 28.034C31.4986 28.3347 31.8254 28.7754 31.9481 29.2727C32.0709 29.7699 31.9811 30.2893 31.6957 30.7326C31.4104 31.1758 30.9493 31.5122 30.3997 31.6781L30.3825 31.6831V33.2914C30.3825 34.5176 29.8258 35.6936 28.8349 36.5606C27.844 37.4277 26.5001 37.9148 25.0987 37.9148C23.6974 37.9148 22.3534 37.4277 21.3625 36.5606C20.3716 35.6936 19.8149 34.5176 19.8149 33.2914V33.2081V33.2114V31.1264C19.6518 31.1167 19.4972 31.0591 19.3762 30.9629C19.2552 30.8667 19.1749 30.7376 19.1482 30.5964V30.5931C17.5702 30.3298 16.146 29.5945 15.1194 28.5132C14.0929 27.432 13.528 26.0721 13.5216 24.6664V21.9048C10.8473 22.9098 7.68157 22.9298 5.23014 23.7714C1.24157 25.1364 1.15014 27.2381 1.02823 27.5548C0.723472 28.3348 0.136806 29.4764 0.0034724 34.5464C-0.0193847 35.2131 0.00347251 36.2348 2.30062 37.1281C7.30252 38.8448 13.7463 39.3781 20.0987 39.7614H20.7082C27.0739 39.3814 33.5082 38.8498 38.5063 37.1281C40.7939 36.2398 40.8149 35.2248 40.7939 34.5514V34.5498ZM12.8301 32.4831H10.4568V34.5681H8.76157V32.4898H6.38823V31.0064H8.76157V28.9298H10.4568V31.0064H12.8301V32.4831Z" fill="#028BBE"/>
<path d="M30.9049 29.9417V29.94C30.9046 29.6426 30.7694 29.3575 30.5289 29.1473C30.2884 28.9371 29.9624 28.8191 29.6225 28.8192C29.2826 28.8193 28.9567 28.9375 28.7164 29.1479C28.4761 29.3582 28.3411 29.6434 28.3411 29.9409C28.3411 30.2383 28.4761 30.5235 28.7164 30.7338C28.9567 30.9442 29.2826 31.0624 29.6225 31.0625C29.9624 31.0626 30.2884 30.9446 30.5289 30.7344C30.7694 30.5242 30.9046 30.2391 30.9049 29.9417Z" fill="#028BBE"/>
</g>
<defs>
<clipPath id="clip0_122_2">
<rect width="40" height="40" fill="white"/>
</clipPath>
</defs>
</svg>
