<svg width="28" height="38" viewBox="0 0 28 38" fill="none" xmlns="http://www.w3.org/2000/svg">
<path d="M26.5139 7.36462C24.3737 6.69784 22.2829 5.83142 20.2617 4.77374C18.2731 3.76673 16.3534 2.5836 14.5194 1.23471L14 0.859863L13.49 1.24574C11.656 2.59463 9.73636 3.77776 7.74777 4.78476C5.72316 5.83924 3.62919 6.70197 1.4861 7.36462L0.777771 7.57409V16.7689C0.777771 31.5314 13.5561 37.055 13.6789 37.1101L14 37.2424L14.3211 37.1101C14.4533 37.1101 27.2222 31.5424 27.2222 16.7689V7.57409L26.5139 7.36462ZM22.1978 14.6962L11.6483 26.6584L5.67944 19.6795C5.42896 19.3871 5.28824 18.9906 5.28824 18.577C5.28824 18.1635 5.42896 17.7669 5.67944 17.4745C5.92992 17.1821 6.26965 17.0179 6.62388 17.0179C6.97812 17.0179 7.31785 17.1821 7.56833 17.4745L11.6767 22.3586L20.3561 12.4361C20.4801 12.2913 20.6274 12.1765 20.7894 12.0981C20.9515 12.0198 21.1252 11.9794 21.3006 11.9794C21.476 11.9794 21.6496 12.0198 21.8117 12.0981C21.9737 12.1765 22.121 12.2913 22.245 12.4361C22.369 12.5809 22.4674 12.7528 22.5345 12.9419C22.6017 13.1311 22.6362 13.3339 22.6362 13.5386C22.6362 13.7434 22.6017 13.9461 22.5345 14.1353C22.4674 14.3245 22.369 14.4963 22.245 14.6411L22.1978 14.6962Z" fill="white"/>
</svg>
