<svg width="34" height="40" viewBox="0 0 34 40" fill="none" xmlns="http://www.w3.org/2000/svg">
<path d="M0 28.5103C0 27.7794 0.255866 27.0785 0.711312 26.5617C1.16676 26.0449 1.78447 25.7545 2.42857 25.7545H7.28571C7.92981 25.7545 8.54753 26.0449 9.00297 26.5617C9.45842 27.0785 9.71429 27.7794 9.71429 28.5103V36.7776C9.71429 37.5085 9.45842 38.2094 9.00297 38.7262C8.54753 39.243 7.92981 39.5334 7.28571 39.5334H2.42857C1.78447 39.5334 1.16676 39.243 0.711312 38.7262C0.255866 38.2094 0 37.5085 0 36.7776V28.5103ZM12.1429 17.4872C12.1429 16.7564 12.3987 16.0554 12.8542 15.5386C13.3096 15.0218 13.9273 14.7315 14.5714 14.7315H19.4286C20.0727 14.7315 20.6904 15.0218 21.1458 15.5386C21.6013 16.0554 21.8571 16.7564 21.8571 17.4872V36.7776C21.8571 37.5085 21.6013 38.2094 21.1458 38.7262C20.6904 39.243 20.0727 39.5334 19.4286 39.5334H14.5714C13.9273 39.5334 13.3096 39.243 12.8542 38.7262C12.3987 38.2094 12.1429 37.5085 12.1429 36.7776V17.4872ZM24.2857 3.7084C24.2857 2.97753 24.5416 2.27659 24.997 1.75978C25.4525 1.24298 26.0702 0.952637 26.7143 0.952637H31.5714C32.2155 0.952637 32.8332 1.24298 33.2887 1.75978C33.7441 2.27659 34 2.97753 34 3.7084V36.7776C34 37.5085 33.7441 38.2094 33.2887 38.7262C32.8332 39.243 32.2155 39.5334 31.5714 39.5334H26.7143C26.0702 39.5334 25.4525 39.243 24.997 38.7262C24.5416 38.2094 24.2857 37.5085 24.2857 36.7776V3.7084Z" fill="white"/>
</svg>
