<svg width="34" height="34" viewBox="0 0 34 34" fill="none" xmlns="http://www.w3.org/2000/svg">
<path fill-rule="evenodd" clip-rule="evenodd" d="M16.9999 30.3333C20.5361 30.3333 23.9275 28.9286 26.428 26.4281C28.9285 23.9276 30.3333 20.5362 30.3333 17C30.3333 13.4638 28.9285 10.0724 26.428 7.57192C23.9275 5.07144 20.5361 3.66668 16.9999 3.66668C13.4637 3.66668 10.0723 5.07144 7.57183 7.57192C5.07134 10.0724 3.66659 13.4638 3.66659 17C3.66659 20.5362 5.07134 23.9276 7.57183 26.4281C10.0723 28.9286 13.4637 30.3333 16.9999 30.3333ZM16.9999 33.6667C7.79492 33.6667 0.333252 26.205 0.333252 17C0.333252 7.79501 7.79492 0.333344 16.9999 0.333344C26.2049 0.333344 33.6666 7.79501 33.6666 17C33.6666 26.205 26.2049 33.6667 16.9999 33.6667ZM11.9999 18.6667C11.9999 19.9928 12.5267 21.2645 13.4644 22.2022C14.4021 23.1399 15.6738 23.6667 16.9999 23.6667C18.326 23.6667 19.5978 23.1399 20.5355 22.2022C21.4731 21.2645 21.9999 19.9928 21.9999 18.6667H23.6666C23.6666 20.4348 22.9642 22.1305 21.714 23.3807C20.4637 24.631 18.768 25.3333 16.9999 25.3333C15.2318 25.3333 13.5361 24.631 12.2859 23.3807C11.0356 22.1305 10.3333 20.4348 10.3333 18.6667H11.9999ZM12.8333 15.3333C13.4963 15.3333 14.1322 15.07 14.601 14.6011C15.0699 14.1323 15.3333 13.4964 15.3333 12.8333C15.3333 12.1703 15.0699 11.5344 14.601 11.0656C14.1322 10.5967 13.4963 10.3333 12.8333 10.3333C12.1702 10.3333 11.5343 10.5967 11.0655 11.0656C10.5966 11.5344 10.3333 12.1703 10.3333 12.8333C10.3333 13.4964 10.5966 14.1323 11.0655 14.6011C11.5343 15.07 12.1702 15.3333 12.8333 15.3333ZM21.1666 15.3333C21.8296 15.3333 22.4655 15.07 22.9344 14.6011C23.4032 14.1323 23.6666 13.4964 23.6666 12.8333C23.6666 12.1703 23.4032 11.5344 22.9344 11.0656C22.4655 10.5967 21.8296 10.3333 21.1666 10.3333C20.5035 10.3333 19.8677 10.5967 19.3988 11.0656C18.93 11.5344 18.6666 12.1703 18.6666 12.8333C18.6666 13.4964 18.93 14.1323 19.3988 14.6011C19.8677 15.07 20.5035 15.3333 21.1666 15.3333Z" fill="#56B1D1"/>
</svg>
