<svg width="35" height="41" viewBox="0 0 35 41" fill="none" xmlns="http://www.w3.org/2000/svg">
<path d="M34.0625 7.77692C31.23 7.04768 28.4627 6.10011 25.7875 4.94335C23.1556 3.84201 20.6148 2.54805 18.1875 1.07281L17.5 0.662842L16.825 1.08486C14.3977 2.56011 11.857 3.85407 9.225 4.9554C6.54537 6.10866 3.77393 7.0522 0.9375 7.77692L0 8.00602V18.0622C0 34.2075 16.9125 40.2485 17.075 40.3088L17.5 40.4534L17.925 40.3088C18.1 40.3088 35 34.2196 35 18.0622V8.00602L34.0625 7.77692ZM28.35 15.7953L14.3875 28.878L6.4875 21.2454C6.15598 20.9256 5.96973 20.4919 5.96973 20.0397C5.96973 19.5874 6.15598 19.1537 6.4875 18.8339C6.81902 18.5141 7.26866 18.3344 7.7375 18.3344C8.20634 18.3344 8.65598 18.5141 8.9875 18.8339L14.425 24.1755L25.9125 13.3235C26.0767 13.1651 26.2715 13.0395 26.486 12.9538C26.7005 12.8681 26.9304 12.824 27.1625 12.824C27.3947 12.824 27.6245 12.8681 27.839 12.9538C28.0535 13.0395 28.2484 13.1651 28.4125 13.3235C28.5767 13.4818 28.7069 13.6698 28.7957 13.8767C28.8845 14.0836 28.9303 14.3053 28.9303 14.5293C28.9303 14.7532 28.8845 14.9749 28.7957 15.1818C28.7069 15.3887 28.5767 15.5767 28.4125 15.735L28.35 15.7953Z" fill="#028BBE"/>
</svg>
